<svg viewBox="0 0 937 629" xmlns="http://www.w3.org/2000/svg" role="img" aria-label="Assembly layout v3: the front shell seen from the back, back cover removed. At the top, the speaker shelf with two lever connectors above the speaker, the volume knob and the power switch; in the middle, the ESP32-S3 board with its board clamp and the battery holder, with a wire channel between them; at the bottom, the charger module in its slot, the microphone under its clamp plate and the amplifier in its socket."><style>.board{fill:#2C4A3B}.mod{fill:#FAFBF8;stroke:#D4DAD2;stroke-width:1.2}.pin{fill:#16201A}.pinw{fill:#fff}.pin-offw{fill:#fff;opacity:.28}.t-b{font:600 13px system-ui,-apple-system,'Segoe UI',sans-serif;fill:#16201A}.t-m{font:12px system-ui,-apple-system,'Segoe UI',sans-serif;fill:#5B675F}.t-bw{font:600 13px system-ui,-apple-system,'Segoe UI',sans-serif;fill:#fff}.t-mw{font:11.5px system-ui,-apple-system,'Segoe UI',sans-serif;fill:#CFE0D6}.t-pin{font:600 11.5px ui-monospace,Menlo,Consolas,monospace;fill:#16201A}.t-pinw{font:600 11.5px ui-monospace,Menlo,Consolas,monospace;fill:#fff}.t-offw{font:500 11px ui-monospace,Menlo,Consolas,monospace;fill:#fff;opacity:.4}.t-tag{font:600 11px system-ui,-apple-system,'Segoe UI',sans-serif;fill:#fff}.w{fill:none;stroke:#16201A;stroke-width:1.6}.p5{fill:none;stroke:#C63D24;stroke-width:2.6}.pg{fill:none;stroke:#3E4A43;stroke-width:2.6}.tag5{fill:#C63D24}.tag3{fill:#B86F00}.tagg{fill:#3E4A43}.tagn{fill:#5B675F}.tagb{fill:#FAFBF8;stroke:#3E4A43;stroke-width:1.6}.t-tagb{font:600 11px system-ui,-apple-system,'Segoe UI',sans-serif;fill:#16201A}.arch-box{fill:#FAFBF8;stroke:#D4DAD2;stroke-width:1.3}.arch-hub{fill:#DDEFE4;stroke:#1C7C4E;stroke-width:1.6}.arch-alt{fill:#E4E9E2;stroke:#D4DAD2;stroke-width:1.3;stroke-dasharray:5 4}.a-line{fill:none;stroke:#16201A;stroke-width:1.6}.a-dash{fill:none;stroke:#5B675F;stroke-width:1.6;stroke-dasharray:6 5}.a-head{fill:#16201A}.a-headm{fill:#5B675F}.case{fill:#FAFBF8;stroke:#16201A;stroke-width:1.6}.boss{fill:none;stroke:#D4DAD2;stroke-width:1.4}.lens{fill:#F4F2EC;stroke:#D4DAD2;stroke-width:1.4}.ringled{fill:none;stroke:#23c26b;stroke-width:9;opacity:.55}.grille{fill:none;stroke:#5B675F;stroke-dasharray:2 3}.part{fill:#E4E9E2;stroke:#5B675F;stroke-width:1.2}.dash{fill:none;stroke-dasharray:5 4}.metal{fill:#b9bec2;stroke:#5B675F}.battery{fill:#3f7fd8;stroke:none}.clamp{fill:#F2EEE3;stroke:#16201A;stroke-width:1.2}.t-tag2{font:700 12px system-ui,-apple-system,'Segoe UI',sans-serif;fill:#16201A}.shelf{fill:#E9E5DA;stroke:#16201A;stroke-width:1.2;opacity:.93}.screw{fill:#FAFBF8;stroke:#16201A;stroke-width:1.2}.screwx{stroke:#16201A;stroke-width:1.1;fill:none}.clip{fill:#16201A}.pins{fill:#E0B83C}.tie{fill:#FAFBF8;stroke:#16201A;stroke-width:1.2}.charger{fill:#1d3f6e}.amp{fill:#8a3fbf}.hatch{fill:url(#hatch);stroke:#fff;stroke-width:1}.hatchline{stroke:#fff;stroke-width:1.4}.pad{fill:none;stroke:#fff;stroke-dasharray:3 2}.lead{fill:none;stroke:#5B675F;stroke-width:1}</style><rect width="100%" height="100%" fill="#FAFBF8"/>
<text x="458.6" y="22" class="t-b" text-anchor="middle">Front shell from the back — as it lies on the table during assembly</text>
<text x="458.6" y="40" class="t-m" text-anchor="middle">back cover removed and empty: all the hardware is here · PTT button side on the right</text>
<rect x="360.0" y="100.0" width="197.2" height="493.0" rx="17.4" class="case"/>
<circle cx="541.2" cy="575.9" r="10.2" class="boss"/>
<circle cx="375.9" cy="575.9" r="10.2" class="boss"/>
<circle cx="541.2" cy="133.3" r="10.2" class="boss"/>
<circle cx="375.9" cy="158.0" r="10.2" class="boss"/>
<circle cx="458.6" cy="198.6" r="77.7" class="part dash"/>
<rect x="412.2" y="152.2" width="92.8" height="92.8" rx="2" class="part dash"/>
<rect x="371.0" y="187.0" width="175.2" height="69.6" rx="3" class="shelf"/>
<rect x="396.0" y="164.4" width="125.3" height="23.2" rx="3" class="shelf"/>
<rect x="460.9" y="168.4" width="56.3" height="86.4" rx="2" class="clamp"/>
<rect x="400.0" y="168.4" width="56.3" height="86.4" rx="2" class="clamp"/>
<text x="489.0" y="215.6" class="t-tag2" text-anchor="middle">5 V</text>
<text x="428.1" y="215.6" class="t-tag2" text-anchor="middle">GND</text>
<circle cx="540.1" cy="227.6" r="7.5" class="screw"/>
<path d="M535.5 227.6 h9.3 M540.1 223.0 v9.3" class="screwx"/>
<circle cx="377.1" cy="227.6" r="7.5" class="screw"/>
<path d="M372.5 227.6 h9.3 M377.1 223.0 v9.3" class="screwx"/>
<rect x="412.2" y="107.0" width="75.4" height="27.6" rx="2" class="part dash"/>
<rect x="394.8" y="121.5" width="17.4" height="13.0" rx="1" class="metal"/>
<rect x="502.4" y="107.0" width="22.6" height="43.5" rx="1" class="metal"/>
<rect x="423.8" y="59.4" width="58.0" height="40.6" rx="3" class="part"/>
<rect x="509.4" y="71.0" width="8.7" height="29.0" rx="1" class="metal"/>
<rect x="491.4" y="258.6" width="58.9" height="42.3" rx="2" class="metal"/>
<rect x="466.1" y="304.2" width="81.2" height="182.7" rx="2" class="board"/>
<rect x="480.6" y="484.0" width="52.2" height="21.2" rx="1" class="hatch"/>
<rect x="535.7" y="482.5" width="11.6" height="8.4" rx="1" class="clip"/>
<rect x="466.1" y="482.5" width="11.6" height="8.4" rx="1" class="clip"/>
<rect x="540.7" y="314.5" width="5.8" height="162.1" rx="1" class="pins"/>
<rect x="467.0" y="314.5" width="5.8" height="162.1" rx="1" class="pins"/>
<rect x="445.6" y="346.3" width="71.3" height="17.4" rx="2" class="shelf"/>
<circle cx="454.2" cy="355.2" r="7.5" class="screw"/>
<path d="M449.6 355.2 h9.3 M454.2 350.6 v9.3" class="screwx"/>
<text x="506.7" y="430.3" class="t-bw" text-anchor="middle">ESP32-S3</text>
<rect x="371.9" y="280.1" width="59.4" height="224.8" rx="2" class="battery"/>
<circle cx="401.6" cy="472.2" r="7.5" class="screw"/>
<path d="M397.0 472.2 h9.3 M401.6 467.6 v9.3" class="screwx"/>
<circle cx="401.6" cy="312.7" r="7.5" class="screw"/>
<path d="M397.0 312.7 h9.3 M401.6 308.1 v9.3" class="screwx"/>
<text x="401.6" y="396.5" class="t-bw" text-anchor="middle">18650</text>
<rect x="443.2" y="424.8" width="14.5" height="17.4" rx="1" class="tie"/>
<rect x="443.2" y="308.8" width="14.5" height="17.4" rx="1" class="tie"/>
<rect x="514.3" y="510.6" width="11.6" height="75.4" rx="1" class="charger"/>
<rect x="509.1" y="585.0" width="22.0" height="8.7" rx="2" class="part"/>
<circle cx="458.6" cy="537.9" r="19.4" class="part"/>
<rect x="449.9" y="490.1" width="17.4" height="95.7" rx="2" class="shelf"/>
<circle cx="458.6" cy="575.6" r="7.5" class="screw"/>
<path d="M454.0 575.6 h9.3 M458.6 571.0 v9.3" class="screwx"/>
<circle cx="458.6" cy="500.2" r="7.5" class="screw"/>
<path d="M454.0 500.2 h9.3 M458.6 495.6 v9.3" class="screwx"/>
<rect x="374.2" y="510.1" width="50.2" height="54.5" rx="2" class="amp"/>
<rect x="376.5" y="510.9" width="45.5" height="6.4" rx="1" class="pins"/>
<path d="M403.5 127.3 L350.0 93.3 H344.0" class="lead"/>
<circle cx="403.5" cy="127.3" r="2.4" class="pin"/>
<text x="340.0" y="97.3" class="t-b" text-anchor="end">KY-040 volume knob</text>
<text x="340.0" y="112.3" class="t-m" text-anchor="end">jumper plugs toward the free corner (pocket there)</text>
<path d="M413.6 191.1 L350.0 173.1 H344.0" class="lead"/>
<circle cx="413.6" cy="191.1" r="2.4" class="pin"/>
<text x="340.0" y="177.1" class="t-b" text-anchor="end">GND connector</text>
<text x="340.0" y="192.1" class="t-m" text-anchor="end">in the shelf socket, wire entries toward the side wall</text>
<path d="M377.1 227.6 L350.0 243.6 H344.0" class="lead"/>
<circle cx="377.1" cy="227.6" r="2.4" class="pin"/>
<text x="340.0" y="247.6" class="t-b" text-anchor="end">Speaker shelf</text>
<text x="340.0" y="262.6" class="t-m" text-anchor="end">2 self-tapping screws 3×10 · holds the speaker down</text>
<path d="M377.7 338.1 L350.0 338.1 H344.0" class="lead"/>
<circle cx="377.7" cy="338.1" r="2.4" class="pin"/>
<text x="340.0" y="342.1" class="t-b" text-anchor="end">18650 battery holder</text>
<text x="340.0" y="357.1" class="t-m" text-anchor="end">2 self-tapping screws 3×12 from inside, through its base</text>
<path d="M450.5 433.5 L350.0 473.5 H344.0" class="lead"/>
<circle cx="450.5" cy="433.5" r="2.4" class="pin"/>
<text x="340.0" y="477.5" class="t-b" text-anchor="end">Wire channel</text>
<text x="340.0" y="492.5" class="t-m" text-anchor="end">2 anchors for 2.5 mm cable ties</text>
<path d="M382.9 541.4 L350.0 561.4 H344.0" class="lead"/>
<circle cx="382.9" cy="541.4" r="2.4" class="pin"/>
<text x="340.0" y="565.4" class="t-b" text-anchor="end">MAX98357A amplifier</text>
<text x="340.0" y="580.4" class="t-m" text-anchor="end">wall-side edge under the lip, the other under the catch</text>
<path d="M513.7 97.1 L567.2 103.1 H573.2" class="lead"/>
<circle cx="513.7" cy="97.1" r="2.4" class="pin"/>
<text x="577.2" y="107.1" class="t-b" text-anchor="start">MTS-101 power switch</text>
<text x="577.2" y="122.1" class="t-m" text-anchor="start">crosswise: lever moves to the front / to the back</text>
<path d="M505.6 191.1 L567.2 157.1 H573.2" class="lead"/>
<circle cx="505.6" cy="191.1" r="2.4" class="pin"/>
<text x="577.2" y="161.1" class="t-b" text-anchor="start">5 V connector</text>
<text x="577.2" y="176.1" class="t-m" text-anchor="start">wire entries toward the PTT button wall</text>
<path d="M521.2 279.8 L567.2 279.8 H573.2" class="lead"/>
<circle cx="521.2" cy="279.8" r="2.4" class="pin"/>
<text x="577.2" y="283.8" class="t-b" text-anchor="start">PTT button</text>
<text x="577.2" y="298.8" class="t-m" text-anchor="start">nut on the inside</text>
<path d="M529.9 344.8 L567.2 358.8 H573.2" class="lead"/>
<circle cx="529.9" cy="344.8" r="2.4" class="pin"/>
<text x="577.2" y="362.8" class="t-b" text-anchor="start">ESP32-S3 board</text>
<text x="577.2" y="377.8" class="t-m" text-anchor="start">pins toward you · board clamp on 1 self-tapping screw</text>
<path d="M506.7 495.6 L567.2 495.6 H573.2" class="lead"/>
<circle cx="506.7" cy="495.6" r="2.4" class="pin"/>
<text x="577.2" y="499.6" class="t-b" text-anchor="start">Antenna — down</text>
<text x="577.2" y="514.6" class="t-m" text-anchor="start">board corners go under the two lips</text>
<path d="M520.1 546.6 L567.2 536.6 H573.2" class="lead"/>
<circle cx="520.1" cy="546.6" r="2.4" class="pin"/>
<text x="577.2" y="540.6" class="t-b" text-anchor="start">Charger module</text>
<text x="577.2" y="555.6" class="t-m" text-anchor="start">on its edge, USB-C down; resistors toward the button</text>
<path d="M467.3 537.9 L567.2 577.9 H573.2" class="lead"/>
<circle cx="467.3" cy="537.9" r="2.4" class="pin"/>
<text x="577.2" y="581.9" class="t-b" text-anchor="start">INMP441 microphone</text>
<text x="577.2" y="596.9" class="t-m" text-anchor="start">components to the front · clamp plate on 2 screws</text>
</svg>